<svg width="270" height="217" viewBox="0 0 270 217" fill="none" xmlns="http://www.w3.org/2000/svg">
<path d="M252.211 107.471C252.596 107.865 252.596 108.494 252.211 108.888L164.624 198.517C164.424 198.721 164.297 198.793 164.261 198.812C164.22 198.834 164.19 198.843 164.155 198.85C164.066 198.866 163.83 198.875 163.517 198.747C163.204 198.62 163.041 198.448 162.988 198.374C162.968 198.345 162.953 198.317 162.938 198.273C162.926 198.234 162.885 198.094 162.885 197.808L162.885 18.5508C162.885 18.2641 162.926 18.1239 162.938 18.085C162.953 18.0413 162.968 18.0144 162.988 17.9853C163.041 17.9116 163.203 17.74 163.517 17.6123C163.83 17.4847 164.066 17.4936 164.155 17.5098C164.19 17.5162 164.22 17.5254 164.261 17.5469C164.297 17.5663 164.424 17.6384 164.624 17.8428L252.211 107.471Z" stroke="black" stroke-width="35"/>
<path d="M107.641 0.53125C117.306 0.531254 125.141 8.36627 125.141 18.0313V199.031C125.141 208.696 117.306 216.531 107.641 216.531C97.9756 216.531 90.1406 208.696 90.1406 199.031V124.531H17.5C7.83502 124.531 4.2247e-07 116.696 0 107.031C6.08342e-07 97.3663 7.83502 89.5313 17.5 89.5312H90.1406V18.0313C90.1406 8.36627 97.9756 0.531251 107.641 0.53125Z" fill="black"/>
</svg>
