<svg width="1024" height="1024" viewBox="0 0 1024 1024" fill="none" xmlns="http://www.w3.org/2000/svg">
<g filter="url(#filter0_d_52_106)">
<path d="M722.623 272C731.141 272 738.631 277.441 742.009 285.262C762.433 332.553 801.08 370.133 849.102 389.148C857.25 392.375 863 400.02 863 408.784V617.246C863 626.01 857.25 633.655 849.102 636.882C801.089 655.894 762.448 693.464 742.021 740.742C738.643 748.561 731.154 754 722.637 754H301.363C292.846 754 285.357 748.561 281.979 740.742C261.551 693.463 222.911 655.894 174.898 636.882C166.75 633.655 161 626.01 161 617.246V408.784C161 400.02 166.75 392.375 174.898 389.148C222.92 370.133 261.567 332.553 281.991 285.262C285.369 277.441 292.859 272 301.377 272H722.623ZM512 336C414.246 336 335 415.246 335 513C335 610.754 414.246 690 512 690C609.754 690 689 610.754 689 513C689 415.246 609.754 336 512 336Z" fill="#5CCB01"/>
</g>
<path d="M629.211 511.471C629.596 511.865 629.596 512.494 629.211 512.888L541.624 602.517C541.424 602.721 541.297 602.793 541.261 602.812C541.22 602.834 541.19 602.843 541.155 602.85C541.066 602.866 540.83 602.875 540.517 602.747C540.204 602.62 540.041 602.448 539.988 602.374C539.968 602.345 539.953 602.317 539.938 602.273C539.926 602.234 539.885 602.094 539.885 601.808L539.885 422.551C539.885 422.264 539.926 422.124 539.938 422.085C539.953 422.041 539.968 422.014 539.988 421.985C540.041 421.912 540.203 421.74 540.517 421.612C540.83 421.485 541.066 421.494 541.155 421.51C541.19 421.516 541.22 421.525 541.261 421.547C541.297 421.566 541.424 421.638 541.624 421.843L629.211 511.471Z" stroke="#5CCB01" stroke-width="35"/>
<path d="M484.641 404.531C494.306 404.531 502.141 412.366 502.141 422.031V603.031C502.141 612.696 494.306 620.531 484.641 620.531C474.976 620.531 467.141 612.696 467.141 603.031V528.531H394.5C384.835 528.531 377 520.696 377 511.031C377 501.366 384.835 493.531 394.5 493.531H467.141V422.031C467.141 412.366 474.976 404.531 484.641 404.531Z" fill="#5CCB01"/>
<defs>
<filter id="filter0_d_52_106" x="57" y="172" width="910" height="690" filterUnits="userSpaceOnUse" color-interpolation-filters="sRGB">
<feFlood flood-opacity="0" result="BackgroundImageFix"/>
<feColorMatrix in="SourceAlpha" type="matrix" values="0 0 0 0 0 0 0 0 0 0 0 0 0 0 0 0 0 0 127 0" result="hardAlpha"/>
<feOffset dy="4"/>
<feGaussianBlur stdDeviation="52"/>
<feComposite in2="hardAlpha" operator="out"/>
<feColorMatrix type="matrix" values="0 0 0 0 0 0 0 0 0 0 0 0 0 0 0 0 0 0 0.25 0"/>
<feBlend mode="normal" in2="BackgroundImageFix" result="effect1_dropShadow_52_106"/>
<feBlend mode="normal" in="SourceGraphic" in2="effect1_dropShadow_52_106" result="shape"/>
</filter>
</defs>
</svg>
