<svg width="1024" height="1024" viewBox="0 0 1024 1024" fill="none" xmlns="http://www.w3.org/2000/svg">
<path d="M385.385 463.587H202.616C192.887 463.587 185 455.7 185 445.971C185 436.242 192.887 428.354 202.616 428.354H385.385V463.587ZM821.384 428.354C831.113 428.354 839 436.242 839 445.971C839 455.7 831.113 463.587 821.384 463.587H638.617V428.354H821.384Z" fill="url(#paint0_linear_13_87)"/>
<path d="M385.385 582.495H202.616C192.887 582.495 185 574.608 185 564.879C185 555.15 192.887 547.263 202.616 547.263H385.385V582.495ZM821.384 547.263C831.113 547.263 839 555.15 839 564.879C839 574.608 831.113 582.495 821.384 582.495H638.617V547.263H821.384Z" fill="url(#paint1_linear_13_87)"/>
<path d="M668.093 794.317C628.203 794.317 606 770.233 606 727.332V557.794H417.463V727.332C417.463 769.857 394.884 794.317 354.993 794.317C315.103 794.317 292.9 770.233 292.9 727.332L292.9 296.057C292.9 253.156 315.103 229.071 354.993 229.071C394.884 229.071 417.463 253.532 417.463 296.057V458.821H606V296.057C606 253.156 628.203 229.071 668.093 229.071C707.983 229.071 730.563 253.532 730.563 296.057V727.332C730.563 769.857 707.983 794.317 668.093 794.317Z" fill="url(#paint2_linear_13_87)"/>
<defs>
<linearGradient id="paint0_linear_13_87" x1="512" y1="428.354" x2="512" y2="463.587" gradientUnits="userSpaceOnUse">
<stop stop-color="#55B7F0"/>
<stop offset="1" stop-color="#56DDF1"/>
</linearGradient>
<linearGradient id="paint1_linear_13_87" x1="512" y1="547.263" x2="512" y2="582.495" gradientUnits="userSpaceOnUse">
<stop stop-color="#55B7F0"/>
<stop offset="1" stop-color="#56DDF1"/>
</linearGradient>
<linearGradient id="paint2_linear_13_87" x1="511.732" y1="229.071" x2="511.732" y2="794.317" gradientUnits="userSpaceOnUse">
<stop stop-color="#55B7F0"/>
<stop offset="1" stop-color="#56DDF1"/>
</linearGradient>
</defs>
</svg>
