<svg width="1024" height="1024" viewBox="0 0 1024 1024" fill="none" xmlns="http://www.w3.org/2000/svg">
<path d="M719.238 296C727.188 296 734.302 300.756 737.969 307.81C760.061 350.304 797.375 383.616 842.685 400.524C851.045 403.644 857 411.389 857 420.312V605.718C857 614.642 851.045 622.386 842.685 625.506C797.385 642.41 760.077 675.713 737.983 718.194C734.316 725.246 727.204 730 719.255 730H304.745C296.796 730 289.684 725.246 286.017 718.194C263.923 675.713 226.616 642.41 181.315 625.506C172.955 622.386 167 614.642 167 605.718V420.312C167 411.389 172.955 403.644 181.315 400.524C226.625 383.616 263.939 350.304 286.031 307.81C289.698 300.756 296.812 296 304.762 296H719.238ZM512 357C425.844 357 356 426.844 356 513C356 599.156 425.844 669 512 669C598.156 669 668 599.156 668 513C668 426.844 598.156 357 512 357Z" fill="#C7FB93"/>
<path d="M618.755 502.883C624.451 508.711 624.451 518.021 618.755 523.85L560.478 583.485C551.08 593.102 534.75 586.448 534.75 573.001L534.75 453.732C534.75 440.285 551.08 433.631 560.478 443.248L618.755 502.883Z" fill="#C7FB93"/>
<rect x="395" y="526.49" width="24.7499" height="125.25" rx="12.375" transform="rotate(-90 395 526.49)" fill="#C7FB93"/>
<rect x="520.25" y="587.24" width="26.2499" height="147.75" rx="13.125" transform="rotate(180 520.25 587.24)" fill="#C7FB93"/>
</svg>
