<svg width="1024" height="1024" viewBox="0 0 1024 1024" fill="none" xmlns="http://www.w3.org/2000/svg">
<path d="M512 262.539C649.774 262.539 761.461 374.227 761.461 512C761.461 649.774 649.774 761.461 512 761.461C374.227 761.461 262.539 649.774 262.539 512C262.539 374.227 374.227 262.539 512 262.539ZM480.583 384.919C464.579 380.631 448.129 390.129 443.841 406.133L421.78 488.466H358.538C345.194 488.466 334.376 499.284 334.376 512.628C334.376 525.972 345.194 536.791 358.538 536.791H408.831L392.101 599.23C387.812 615.234 397.31 631.684 413.313 635.973L429.791 640.388C445.795 644.676 462.245 635.179 466.533 619.175L518.274 426.077C522.563 410.073 513.065 393.622 497.061 389.334L480.583 384.919ZM595.518 384.919C579.514 380.631 563.064 390.129 558.775 406.133L507.035 599.23C502.747 615.234 512.244 631.684 528.248 635.973L544.726 640.388C560.73 644.676 577.18 635.179 581.468 619.175L603.542 536.791H666.773C680.118 536.791 690.936 525.972 690.936 512.628C690.935 499.284 680.118 488.466 666.773 488.466H616.491L633.208 426.077C637.496 410.073 627.999 393.622 611.995 389.334L595.518 384.919Z" fill="#C7FB93"/>
</svg>
