<svg width="1024" height="1024" viewBox="0 0 1024 1024" fill="none" xmlns="http://www.w3.org/2000/svg">
<path d="M653.825 331C662.865 331 671.424 335.076 677.12 342.096L779.204 467.891C800.065 493.597 800.065 530.403 779.204 556.109L677.932 680.904C672.235 687.924 663.677 692 654.637 692H374.682C360.368 692 348.345 681.744 343.324 668.34C327.842 627.007 294.993 594.159 253.66 578.677C240.256 573.656 230 561.633 230 547.319V475.68C230 461.366 240.256 449.343 253.66 444.322C294.993 428.841 327.841 395.992 343.323 354.659C348.344 341.255 360.367 331 374.681 331H653.825ZM512 356C425.844 356 356 425.844 356 512C356 598.156 425.844 668 512 668C598.156 668 668 598.156 668 512C668 425.844 598.156 356 512 356Z" fill="#C7FB93"/>
<rect x="435.605" y="404" width="48.3976" height="216.893" rx="24.1988" fill="#C7FB93"/>
<rect x="540.831" y="404" width="48.3976" height="216.893" rx="24.1988" fill="#C7FB93"/>
<path d="M464.165 527.354H401.784C393.067 527.354 386 520.287 386 511.569C386 502.852 393.067 495.786 401.784 495.786L464.165 495.785V527.354ZM622.759 495.785C631.476 495.785 638.543 502.852 638.543 511.569C638.543 520.287 631.476 527.354 622.759 527.354H562.753V495.785H622.759Z" fill="#C7FB93"/>
</svg>
