<svg width="1032" height="811" viewBox="0 0 1032 811" fill="none" xmlns="http://www.w3.org/2000/svg">
<g filter="url(#filter0_d_53_30)">
<rect x="109.5" y="105.5" width="813" height="592" rx="94.5" fill="#007814" stroke="url(#paint0_linear_53_30)" stroke-width="11"/>
<g filter="url(#filter1_d_53_30)">
<mask id="path-2-inside-1_53_30" fill="white">
<path d="M726.623 161C735.141 161 742.631 166.441 746.009 174.262C766.433 221.553 805.08 259.133 853.102 278.148C861.25 281.375 867 289.02 867 297.784V506.246C867 515.01 861.25 522.655 853.102 525.882C805.089 544.894 766.448 582.464 746.021 629.742C742.643 637.561 735.154 643 726.637 643H305.363C296.846 643 289.357 637.561 285.979 629.742C265.551 582.463 226.911 544.894 178.898 525.882C170.75 522.655 165 515.01 165 506.246V297.784C165 289.02 170.75 281.375 178.898 278.148C226.92 259.133 265.567 221.553 285.991 174.262C289.369 166.441 296.859 161 305.377 161L726.623 161ZM516 225C418.246 225 339 304.246 339 402C339 499.754 418.246 579 516 579C613.754 579 693 499.754 693 402C693 304.246 613.754 225 516 225Z"/>
</mask>
<path d="M726.623 161C735.141 161 742.631 166.441 746.009 174.262C766.433 221.553 805.08 259.133 853.102 278.148C861.25 281.375 867 289.02 867 297.784V506.246C867 515.01 861.25 522.655 853.102 525.882C805.089 544.894 766.448 582.464 746.021 629.742C742.643 637.561 735.154 643 726.637 643H305.363C296.846 643 289.357 637.561 285.979 629.742C265.551 582.463 226.911 544.894 178.898 525.882C170.75 522.655 165 515.01 165 506.246V297.784C165 289.02 170.75 281.375 178.898 278.148C226.92 259.133 265.567 221.553 285.991 174.262C289.369 166.441 296.859 161 305.377 161L726.623 161ZM516 225C418.246 225 339 304.246 339 402C339 499.754 418.246 579 516 579C613.754 579 693 499.754 693 402C693 304.246 613.754 225 516 225Z" fill="#00CD00"/>
<path d="M726.623 161V156V156V161ZM746.009 174.262L741.419 176.244V176.244L746.009 174.262ZM853.102 278.148L854.942 273.5V273.5L853.102 278.148ZM867 297.784H872V297.784L867 297.784ZM867 506.246L872 506.246V506.246H867ZM853.102 525.882L854.942 530.531V530.531L853.102 525.882ZM746.021 629.742L750.611 631.725V631.725L746.021 629.742ZM726.637 643V648H726.637L726.637 643ZM305.363 643L305.363 648H305.363V643ZM285.979 629.742L281.389 631.725L281.389 631.725L285.979 629.742ZM178.898 525.882L177.058 530.531L177.058 530.531L178.898 525.882ZM165 506.246H160V506.246L165 506.246ZM165 297.784L160 297.784V297.784H165ZM178.898 278.148L177.058 273.5L177.058 273.5L178.898 278.148ZM285.991 174.262L290.581 176.244L290.581 176.244L285.991 174.262ZM305.377 161V156H305.377L305.377 161ZM726.623 161V166C732.94 166 738.747 170.058 741.419 176.244L746.009 174.262L750.599 172.279C746.516 162.825 737.343 156 726.623 156V161ZM746.009 174.262L741.419 176.244C762.367 224.751 802.002 263.291 851.261 282.797L853.102 278.148L854.942 273.5C808.158 254.974 770.498 218.355 750.599 172.279L746.009 174.262ZM853.102 278.148L851.261 282.797C857.711 285.351 862 291.287 862 297.784L867 297.784L872 297.784C872 286.754 864.789 277.399 854.942 273.5L853.102 278.148ZM867 297.784H862V506.246H867H872V297.784H867ZM867 506.246L862 506.246C862 512.743 857.711 518.679 851.261 521.233L853.102 525.882L854.942 530.531C864.789 526.632 872 517.276 872 506.246L867 506.246ZM853.102 525.882L851.261 521.233C802.011 540.735 762.384 579.265 741.432 627.759L746.021 629.742L750.611 631.725C770.513 585.662 808.167 549.053 854.942 530.531L853.102 525.882ZM746.021 629.742L741.432 627.759C738.76 633.943 732.953 638 726.637 638L726.637 643L726.637 648C737.354 648 746.527 641.178 750.611 631.725L746.021 629.742ZM726.637 643V638H305.363V643V648H726.637V643ZM305.363 643L305.363 638C299.047 638 293.24 633.943 290.568 627.759L285.979 629.742L281.389 631.725C285.473 641.178 294.646 648 305.363 648L305.363 643ZM285.979 629.742L290.568 627.759C269.616 579.265 229.989 540.735 180.739 521.233L178.898 525.882L177.058 530.531C223.833 549.053 261.487 585.662 281.389 631.725L285.979 629.742ZM178.898 525.882L180.739 521.233C174.289 518.679 170 512.743 170 506.246L165 506.246L160 506.246C160 517.276 167.211 526.632 177.058 530.531L178.898 525.882ZM165 506.246H170V297.784H165H160V506.246H165ZM165 297.784L170 297.784C170 291.287 174.289 285.351 180.739 282.797L178.898 278.148L177.058 273.5C167.211 277.399 160 286.754 160 297.784L165 297.784ZM178.898 278.148L180.739 282.797C229.998 263.292 269.633 224.751 290.581 176.244L285.991 174.262L281.401 172.279C261.502 218.355 223.842 254.974 177.058 273.5L178.898 278.148ZM285.991 174.262L290.581 176.244C293.253 170.058 299.06 166 305.377 166L305.377 161L305.377 156C294.657 156 285.484 162.825 281.401 172.279L285.991 174.262ZM305.377 161V166L726.623 166V161V156L305.377 156V161ZM516 225V220C415.484 220 334 301.484 334 402H339H344C344 307.007 421.007 230 516 230V225ZM339 402H334C334 502.516 415.484 584 516 584V579V574C421.007 574 344 496.993 344 402H339ZM516 579V584C616.516 584 698 502.516 698 402H693H688C688 496.993 610.993 574 516 574V579ZM693 402H698C698 301.484 616.516 220 516 220V225V230C610.993 230 688 307.007 688 402H693Z" fill="url(#paint1_linear_53_30)" fill-opacity="0.6" mask="url(#path-2-inside-1_53_30)"/>
<path d="M645.727 389.24C652.757 396.434 652.758 407.925 645.727 415.119L558.14 504.747C546.721 516.432 527.013 508.657 526.399 492.58L526.385 491.808L526.385 312.551L526.399 311.779C527.012 295.702 546.721 287.927 558.14 299.611L645.727 389.24ZM561.385 353.01L561.385 451.349L609.435 402.179L561.385 353.01Z" fill="#00CD00"/>
<path d="M643.939 390.987C650.02 397.21 650.02 407.15 643.939 413.372L556.352 503C546.479 513.103 529.429 506.384 528.898 492.485L528.885 491.808L528.885 312.551L528.898 311.872C529.43 297.974 546.479 291.256 556.352 301.358L643.939 390.987ZM611.224 400.432L563.173 351.263L558.885 346.875L558.885 457.484L563.173 453.097L611.224 403.926L612.931 402.179L611.224 400.432Z" stroke="url(#paint2_linear_53_30)" stroke-opacity="0.6" stroke-width="5"/>
<path d="M488.641 294.531C498.306 294.531 506.141 302.366 506.141 312.031V493.031C506.141 502.696 498.306 510.531 488.641 510.531C478.976 510.531 471.141 502.696 471.141 493.031V418.531H398.5C388.835 418.531 381 410.696 381 401.031C381 391.366 388.835 383.531 398.5 383.531H471.141V312.031C471.141 302.366 478.976 294.531 488.641 294.531Z" fill="#00CD00"/>
<path d="M488.641 297.031C496.925 297.031 503.641 303.747 503.641 312.031V493.031C503.641 501.316 496.925 508.031 488.641 508.031L488.254 508.026C480.148 507.821 473.641 501.186 473.641 493.031V416.031H398.5L398.113 416.026C390.008 415.821 383.5 409.186 383.5 401.031L383.505 400.645C383.71 392.539 390.345 386.031 398.5 386.031H473.641V312.031L473.646 311.645C473.847 303.668 480.277 297.238 488.254 297.036L488.641 297.031Z" stroke="url(#paint3_linear_53_30)" stroke-opacity="0.6" stroke-width="5"/>
</g>
</g>
<defs>
<filter id="filter0_d_53_30" x="0" y="0" width="1032" height="811" filterUnits="userSpaceOnUse" color-interpolation-filters="sRGB">
<feFlood flood-opacity="0" result="BackgroundImageFix"/>
<feColorMatrix in="SourceAlpha" type="matrix" values="0 0 0 0 0 0 0 0 0 0 0 0 0 0 0 0 0 0 127 0" result="hardAlpha"/>
<feOffset dy="4"/>
<feGaussianBlur stdDeviation="52"/>
<feComposite in2="hardAlpha" operator="out"/>
<feColorMatrix type="matrix" values="0 0 0 0 0 0 0 0 0 0 0 0 0 0 0 0 0 0 0.25 0"/>
<feBlend mode="normal" in2="BackgroundImageFix" result="effect1_dropShadow_53_30"/>
<feBlend mode="normal" in="SourceGraphic" in2="effect1_dropShadow_53_30" result="shape"/>
</filter>
<filter id="filter1_d_53_30" x="139" y="135" width="754" height="534" filterUnits="userSpaceOnUse" color-interpolation-filters="sRGB">
<feFlood flood-opacity="0" result="BackgroundImageFix"/>
<feColorMatrix in="SourceAlpha" type="matrix" values="0 0 0 0 0 0 0 0 0 0 0 0 0 0 0 0 0 0 127 0" result="hardAlpha"/>
<feOffset/>
<feGaussianBlur stdDeviation="13"/>
<feComposite in2="hardAlpha" operator="out"/>
<feColorMatrix type="matrix" values="0 0 0 0 0 0 0 0 0 0 0 0 0 0 0 0 0 0 0.1 0"/>
<feBlend mode="normal" in2="BackgroundImageFix" result="effect1_dropShadow_53_30"/>
<feBlend mode="normal" in="SourceGraphic" in2="effect1_dropShadow_53_30" result="shape"/>
</filter>
<linearGradient id="paint0_linear_53_30" x1="336.706" y1="100" x2="695.294" y2="703" gradientUnits="userSpaceOnUse">
<stop stop-color="#00B14F"/>
<stop offset="1" stop-color="#006721"/>
</linearGradient>
<linearGradient id="paint1_linear_53_30" x1="516" y1="161" x2="516" y2="643" gradientUnits="userSpaceOnUse">
<stop stop-color="#32E100"/>
<stop offset="1" stop-color="#5AFC00"/>
</linearGradient>
<linearGradient id="paint2_linear_53_30" x1="651" y1="402.179" x2="526.385" y2="402.179" gradientUnits="userSpaceOnUse">
<stop stop-color="#5AFC00"/>
<stop offset="1" stop-color="#32E100"/>
</linearGradient>
<linearGradient id="paint3_linear_53_30" x1="443.57" y1="294.531" x2="443.57" y2="510.531" gradientUnits="userSpaceOnUse">
<stop stop-color="#5AFC00"/>
<stop offset="1" stop-color="#32E100"/>
</linearGradient>
</defs>
</svg>
